<svg width="375" height="812" viewBox="0 0 375 812" fill="none" xmlns="http://www.w3.org/2000/svg">
<rect width="375" height="812" fill="#202024"/>
<mask id="mask0_61385:181" style="mask-type:alpha" maskUnits="userSpaceOnUse" x="0" y="0" width="375" height="812">
<rect width="375" height="812" fill="#202024"/>
</mask>
<g mask="url(#mask0_61385:181)">
<path d="M375 168.101V-310.699L187.478 -418.486L-0.0446777 -310.699V168.101L187.478 275.894L375 168.101Z" fill="url(#paint0_linear_61385:181)"/>
<g style="mix-blend-mode:luminosity" opacity="0.4">
<path d="M1.83662 61.3931V168.797L95.1275 222.505L188.418 168.797V61.3931L95.1275 7.68578L1.83662 61.3931Z" fill="url(#paint1_linear_61385:181)"/>
<path d="M1.83662 -46.0166V61.3877L95.1275 115.095L188.418 61.3877V-46.0166L95.1275 -99.7239L1.83662 -46.0166Z" fill="url(#paint2_linear_61385:181)"/>
<path d="M281.709 -99.6961V7.70821L188.418 61.4155L95.1274 7.70821V-99.6961L188.418 -153.403L281.709 -99.6961Z" fill="url(#paint3_linear_61385:181)"/>
<path d="M188.418 168.797V61.3927L281.709 7.68539L375 61.3927V168.797L281.709 222.504L188.418 168.797Z" fill="url(#paint4_linear_61385:181)"/>
<path d="M375 -46.0166V61.3877L281.709 115.095L188.418 61.3877V-46.0166L281.709 -99.7239L375 -46.0166Z" fill="url(#paint5_linear_61385:181)"/>
<path d="M281.709 222.527V115.123L188.418 61.4155L95.1274 115.123L95.1274 222.527L188.418 276.234L281.709 222.527Z" fill="url(#paint6_linear_61385:181)"/>
</g>
</g>
<rect x="248" y="596" width="48" height="48" fill="#323238"/>
<g clip-path="url(#clip0_61385:181)">
<path d="M284.685 612.845C283.76 613.236 282.78 613.494 281.777 613.61C282.835 613.004 283.627 612.052 284.005 610.93C283.012 611.497 281.923 611.896 280.788 612.109C280.095 611.398 279.193 610.903 278.201 610.688C277.208 610.474 276.172 610.55 275.225 610.908C274.279 611.265 273.468 611.887 272.897 612.692C272.326 613.497 272.022 614.447 272.025 615.42C272.023 615.792 272.067 616.163 272.156 616.525C270.14 616.429 268.167 615.929 266.368 615.055C264.568 614.182 262.981 612.955 261.711 611.456C261.063 612.523 260.865 613.787 261.158 614.989C261.451 616.191 262.212 617.241 263.286 617.925C262.479 617.906 261.688 617.698 260.984 617.32V617.38C260.984 618.5 261.389 619.585 262.13 620.451C262.872 621.317 263.904 621.911 265.052 622.132C264.617 622.245 264.169 622.302 263.718 622.302C263.399 622.303 263.08 622.273 262.766 622.212C263.09 623.175 263.72 624.017 264.569 624.62C265.418 625.224 266.443 625.558 267.501 625.577C265.707 626.925 263.489 627.656 261.206 627.652C260.802 627.652 260.399 627.628 259.998 627.583C262.305 629.017 264.999 629.778 267.75 629.772C269.649 629.785 271.531 629.437 273.287 628.748C275.043 628.059 276.639 627.044 277.981 625.761C279.323 624.478 280.385 622.952 281.105 621.273C281.825 619.594 282.188 617.795 282.174 615.981C282.174 615.771 282.174 615.561 282.158 615.356C283.15 614.669 284.005 613.819 284.685 612.845Z" fill="white"/>
</g>
<rect x="192" y="596" width="48" height="48" fill="#323238"/>
<path d="M228.146 620.073C228.146 613.405 222.742 608 216.073 608C209.405 608 204 613.405 204 620.073C204 626.1 208.414 631.095 214.187 632V623.563H211.121V620.073H214.187V617.413C214.187 614.388 215.988 612.716 218.747 612.716C220.068 612.716 221.449 612.952 221.449 612.952V615.923H219.926C218.426 615.923 217.96 616.854 217.96 617.809V620.073H221.308L220.773 623.563H217.96V632C223.732 631.095 228.146 626.1 228.146 620.073Z" fill="white"/>
<rect x="80" y="596" width="48" height="48" fill="#323238"/>
<g clip-path="url(#clip1_61385:181)">
<path d="M116.525 614.811C116.57 613.782 116.219 612.778 115.55 612.017C114.881 611.257 113.948 610.802 112.956 610.754C110.285 610.624 107.561 610.571 104.778 610.571H103.911C101.134 610.571 98.4042 610.621 95.7328 610.754C94.7408 610.806 93.809 611.262 93.141 612.025C92.473 612.787 92.1233 613.792 92.1684 614.821C92.0485 616.604 91.9947 618.38 92 620.161C92.0053 621.942 92.0485 623.721 92.164 625.506C92.117 626.536 92.4655 627.544 93.1334 628.308C93.8013 629.073 94.734 629.532 95.7275 629.585C98.5338 629.72 101.413 629.779 104.34 629.775C107.272 629.785 110.143 629.721 112.953 629.585C113.946 629.533 114.88 629.075 115.548 628.311C116.217 627.547 116.567 626.54 116.521 625.51C116.636 623.724 116.689 621.945 116.685 620.16C116.694 618.377 116.641 616.594 116.525 614.811ZM101.978 625.065V615.241L108.971 620.151L101.978 625.065Z" fill="white"/>
</g>
<rect x="136" y="596" width="48" height="48" fill="#323238"/>
<g clip-path="url(#clip2_61385:181)">
<path d="M158.724 632C157.617 632 156.324 631.994 155.048 631.921C153.181 631.963 151.373 631.267 150.016 629.984C148.733 628.628 148.037 626.82 148.079 624.953C148 623.51 148 622.051 148 620.64C148 620.427 148 620.213 148 620C148 619.787 148 619.573 148 619.36C148 617.949 148 616.49 148.079 615.048C148.037 613.181 148.733 611.373 150.016 610.016C151.373 608.733 153.181 608.037 155.048 608.079C156.328 608.006 157.617 608 158.724 608H161.277C162.384 608 163.677 608.006 164.954 608.079C166.821 608.037 168.629 608.733 169.985 610.016C171.268 611.373 171.964 613.181 171.922 615.048C172 616.49 172 617.949 172 619.361C172 619.574 172 619.788 172 620.001C172 620.214 172 620.427 172 620.64C172 622.051 172 623.51 171.921 624.954C171.963 626.821 171.267 628.629 169.984 629.985C168.628 631.268 166.82 631.964 164.953 631.922C163.672 631.995 162.383 632.001 161.276 632.001L158.724 632Z" fill="white"/>
<path d="M165.606 614.789C165.843 614.947 166.121 615.031 166.405 615.031L166.406 615.032C166.787 615.031 167.153 614.879 167.422 614.61C167.692 614.34 167.843 613.974 167.843 613.593C167.843 613.308 167.759 613.03 167.601 612.794C167.443 612.557 167.218 612.373 166.955 612.264C166.693 612.155 166.403 612.127 166.125 612.182C165.846 612.238 165.589 612.375 165.388 612.576C165.187 612.777 165.05 613.033 164.995 613.312C164.939 613.591 164.968 613.88 165.077 614.143C165.185 614.406 165.37 614.63 165.606 614.789Z" fill="#323238"/>
<path fill-rule="evenodd" clip-rule="evenodd" d="M160 626.156C158.783 626.155 157.593 625.794 156.581 625.118C155.568 624.441 154.779 623.48 154.314 622.355C153.848 621.23 153.726 619.992 153.964 618.798C154.201 617.604 154.788 616.507 155.649 615.646C156.51 614.785 157.607 614.199 158.801 613.962C159.995 613.724 161.233 613.846 162.357 614.312C163.482 614.778 164.444 615.567 165.12 616.58C165.796 617.592 166.157 618.782 166.157 620C166.156 621.632 165.507 623.197 164.352 624.351C163.198 625.506 161.633 626.154 160 626.156ZM160 616C159.209 616 158.436 616.235 157.778 616.674C157.12 617.114 156.608 617.738 156.305 618.469C156.002 619.2 155.923 620.005 156.077 620.78C156.231 621.556 156.612 622.269 157.172 622.829C157.731 623.388 158.444 623.769 159.22 623.923C159.996 624.078 160.8 623.998 161.531 623.696C162.262 623.393 162.887 622.88 163.326 622.222C163.766 621.565 164 620.791 164 620C164 618.939 163.579 617.922 162.829 617.172C162.079 616.422 161.061 616 160 616Z" fill="#323238"/>
</g>
<defs>
<linearGradient id="paint0_linear_61385:181" x1="-67.9497" y1="58.9385" x2="436.115" y2="232.357" gradientUnits="userSpaceOnUse">
<stop stop-color="#FF008E"/>
<stop offset="1" stop-color="#FFCD1E"/>
</linearGradient>
<linearGradient id="paint1_linear_61385:181" x1="95.1275" y1="217.565" x2="2.23833" y2="59.047" gradientUnits="userSpaceOnUse">
<stop stop-color="#8257E5"/>
<stop offset="1" stop-color="#FF008E" stop-opacity="0"/>
</linearGradient>
<linearGradient id="paint2_linear_61385:181" x1="95.1275" y1="110.155" x2="2.23831" y2="-48.3627" gradientUnits="userSpaceOnUse">
<stop stop-color="#8257E5"/>
<stop offset="1" stop-color="#FF008E" stop-opacity="0"/>
</linearGradient>
<linearGradient id="paint3_linear_61385:181" x1="95.1275" y1="-105.732" x2="281.421" y2="6.68569" gradientUnits="userSpaceOnUse">
<stop stop-color="#FF008E" stop-opacity="0"/>
<stop offset="1" stop-color="#FFCD1E"/>
</linearGradient>
<linearGradient id="paint4_linear_61385:181" x1="375" y1="174.833" x2="188.706" y2="62.4152" gradientUnits="userSpaceOnUse">
<stop stop-color="#FF008E" stop-opacity="0"/>
<stop offset="1" stop-color="#FFCD1E"/>
</linearGradient>
<linearGradient id="paint5_linear_61385:181" x1="281.709" y1="110.155" x2="374.598" y2="-48.3627" gradientUnits="userSpaceOnUse">
<stop stop-color="#8257E5"/>
<stop offset="1" stop-color="#FF008E" stop-opacity="0"/>
</linearGradient>
<linearGradient id="paint6_linear_61385:181" x1="188.418" y1="66.3552" x2="281.307" y2="224.873" gradientUnits="userSpaceOnUse">
<stop stop-color="#8257E5"/>
<stop offset="1" stop-color="#FF008E" stop-opacity="0"/>
</linearGradient>
<clipPath id="clip0_61385:181">
<rect width="24.6857" height="19.2" fill="white" transform="translate(260 610.571)"/>
</clipPath>
<clipPath id="clip1_61385:181">
<rect width="24.6857" height="19.2" fill="white" transform="translate(92 610.571)"/>
</clipPath>
<clipPath id="clip2_61385:181">
<rect width="24" height="24" fill="white" transform="translate(148 608)"/>
</clipPath>
</defs>
</svg>
